<svg xmlns="http://www.w3.org/2000/svg" viewBox="0 0 512 512" fill="currentColor">
  <path d="M256 8C119 8 8 119 8 256s111 248 248 248 248-111 248-248S393 8 256 8zm0 464c-119.1 0-216-96.9-216-216S136.9 40 256 40s216 96.9 216 216-96.9 216-216 216zm-24-360c0-4.4 3.6-8 8-8h32c4.4 0 8 3.6 8 8v48c0 4.4-3.6 8-8 8h-32c-4.4 0-8-3.6-8-8v-48zm0 80c0-4.4 3.6-8 8-8h32c4.4 0 8 3.6 8 8v48c0 4.4-3.6 8-8 8h-32c-4.4 0-8-3.6-8-8v-48zm0 80c0-4.4 3.6-8 8-8h32c4.4 0 8 3.6 8 8v48c0 4.4-3.6 8-8 8h-32c-4.4 0-8-3.6-8-8v-48zm0 80c0-4.4 3.6-8 8-8h32c4.4 0 8 3.6 8 8v48c0 4.4-3.6 8-8 8h-32c-4.4 0-8-3.6-8-8v-48zM120 152c4.4 0 8 3.6 8 8v32c0 4.4-3.6 8-8 8h-8c-4.4 0-8-3.6-8-8v-32c0-4.4 3.6-8 8-8h8zm0 80c4.4 0 8 3.6 8 8v32c0 4.4-3.6 8-8 8h-8c-4.4 0-8-3.6-8-8v-32c0-4.4 3.6-8 8-8h8zm0 80c4.4 0 8 3.6 8 8v32c0 4.4-3.6 8-8 8h-8c-4.4 0-8-3.6-8-8v-32c0-4.4 3.6-8 8-8h8zm280-160c4.4 0 8 3.6 8 8v32c0 4.4-3.6 8-8 8h-8c-4.4 0-8-3.6-8-8v-32c0-4.4 3.6-8 8-8h8zm0 80c4.4 0 8 3.6 8 8v32c0 4.4-3.6 8-8 8h-8c-4.4 0-8-3.6-8-8v-32c0-4.4 3.6-8 8-8h8zm0 80c4.4 0 8 3.6 8 8v32c0 4.4-3.6 8-8 8h-8c-4.4 0-8-3.6-8-8v-32c0-4.4 3.6-8 8-8h8z"/>
</svg>
