<svg xmlns="http://www.w3.org/2000/svg" viewBox="0 0 512 512" fill="currentColor">
  <path d="M256 8C119.034 8 8 119.033 8 256s111.034 248 248 248 248-111.033 248-248S392.967 8 256 8zm0 48c110.532 0 200 89.451 200 200 0 110.532-89.451 200-200 200-110.532 0-200-89.451-200-200 0-110.532 89.451-200 200-200zm-89.2 52.8c-9.7 11.4-18.2 23.8-25.3 37-14.9 27.8-23.4 59.4-23.4 93 0 33.6 8.5 65.2 23.4 93 7.1 13.2 15.6 25.6 25.3 37l178.4.2c9.7-11.4 18.2-23.8 25.3-37 14.9-27.8 23.4-59.4 23.4-93 0-33.6-8.5-65.2-23.4-93-7.1-13.2-15.6-25.6-25.3-37l-178.4-.2zM256 88c-12 0-23.8.9-35.4 2.6l35.4 165.4 35.4-165.4C280.8 88.9 268.6 88 256 88zm-70.9 10.3L185 256l-165.4 35.4C16 280.8 16 268.6 16 256c0-33.3 8.7-64.7 23.9-91.9l145.2-65.8zm141.8 0l145.2 65.8C487.3 191.3 496 222.7 496 256c0 12.6 0 24.8-3.6 36.4L327 256l-.1-157.7zM88 256l168 36.4-36.4 168c-13.6-3.6-26.8-8.4-39.6-14.3-66.1-30.5-112-97.6-112-174.1 0-5.4.2-10.7.6-16zm168 36.4l36.4 168c13.6-3.6 26.8-8.4 39.6-14.3 66.1-30.5 112-97.6 112-174.1 0-5.4-.2-10.7-.6-16L256 292.4z"/>
</svg>
