<svg xmlns="http://www.w3.org/2000/svg" viewBox="0 0 512 512" fill="currentColor">
  <path d="M256 8C119 8 8 119 8 256s111 248 248 248 248-111 248-248S393 8 256 8zm0 464c-119.1 0-216-96.9-216-216 0-45.3 14-87.3 37.9-121.9l48.1 35.9-11.5 61.7 48.9 35.6 40.6-14.2 40.6 14.2 48.9-35.6-11.5-61.7 48.1-35.9C462 168.7 476 210.7 476 256c0 119.1-96.9 216-216 216zM152.5 120.8l-37.8-28.2c29-22.4 63.4-38.5 101-45.9l-14.7 48.3-48.5 25.8zm207 0l48.5-25.8-14.7-48.3c37.6 7.4 72 23.5 101 45.9l-37.8 28.2-97-0zm-103.5 40.9l-46.4 16.3-32.4-23.5 9.6-51.4 69.2-36.8 69.2 36.8 9.6 51.4-32.4 23.5-46.4-16.3z"/>
</svg>
